<?xml version="1.0" encoding="UTF-8"?>
<svg width="439px" height="469px" viewBox="0 0 439 469" version="1.1" xmlns="http://www.w3.org/2000/svg" xmlns:xlink="http://www.w3.org/1999/xlink">
    <!-- Generator: Sketch 42 (36781) - http://www.bohemiancoding.com/sketch -->
    <title>treehouse</title>
    <desc>Created with Sketch.</desc>
    <defs></defs>
    <g id="Page-1" stroke="none" stroke-width="1" fill="none" fill-rule="evenodd">
        <g id="treehouse" fill-rule="nonzero" fill="#5FCF80">
            <g id="Shape">
                <g id="Page-1">
                    <path d="M415.587238,103.529996 C409.732762,100.604472 396.562762,94.7499957 381.93,85.9699957 C365.832762,77.1899957 340.957238,91.8244725 324.86,116.699996 L297.057238,163.527234 C286.812762,184.014472 288.277238,205.964472 301.447238,224.987234 L302.91,226.449996 C316.08,245.474472 333.64,261.569996 338.03,267.424472 C340.957238,270.349996 343.882762,276.204472 345.347238,280.594471 C349.737238,298.154471 340.957238,314.249995 323.397238,318.639995 C307.3,323.029995 289.74,312.787233 283.887238,296.689995 C282.422762,292.299995 282.422762,287.909995 282.422762,283.519995 C283.887238,276.204472 280.96,264.497234 270.717238,255.717234 C260.472762,244.009996 239.987238,265.959996 234.132762,286.447233 L234.132762,287.909995 C228.28,309.859995 223.89,327.419995 225.352762,328.884471 C225.352762,330.347233 226.817238,331.809995 226.817238,331.809995 C235.597238,349.369995 229.742762,369.857233 212.182762,378.637233 C194.622762,387.417233 172.672762,381.564471 163.892762,364.004471 C155.112762,346.444471 160.967238,325.957233 178.527238,317.177233 C179.99,317.177233 179.99,315.714471 181.452762,315.714471 C182.917238,315.714471 185.842762,305.469995 190.232762,295.227233 C193.16,284.984471 196.087238,276.204472 196.087238,276.204472 C196.087238,274.739996 196.087238,273.277234 197.55,273.277234 L215.11,211.817234 L197.55,248.399996 C194.622762,241.084472 191.697238,241.084472 182.917238,246.937234 C178.527238,249.864472 169.747238,257.179996 166.82,260.107234 C159.502762,265.959996 153.65,276.204472 150.722762,282.057233 C149.26,286.447233 146.332762,289.374471 143.407238,292.299995 C130.237238,304.007233 109.75,301.079995 99.5072384,287.909995 C89.2627616,274.739996 92.19,257.179996 105.36,246.937234 C109.75,244.009996 114.14,241.084472 118.53,241.084472 C125.847238,239.619996 153.65,222.059996 169.747238,211.817234 C172.672762,210.354472 175.6,207.427234 177.062762,205.964472 L219.5,175.234472 L181.452762,195.719996 L172.672762,195.719996 C160.967238,197.184472 146.332762,198.647234 143.407238,203.037234 C141.942762,204.499996 140.48,207.427234 137.552762,208.889996 C125.847238,214.744472 108.287238,211.817234 98.0427616,200.109996 C89.2627616,186.939996 92.19,170.844472 103.897238,162.064472 C111.212762,157.674472 117.067238,156.209996 122.92,156.209996 C133.162762,156.209996 159.502762,162.064472 181.452762,157.674472 L187.307238,156.209996 C209.257238,151.819996 235.597238,134.259996 245.84,113.774472 C245.84,113.774472 256.082762,94.7499957 269.252762,74.2644725 C282.422762,52.3144725 280.96,28.8999957 267.79,20.1199958 L242.912762,5.4872341 C229.742762,-1.83000419 209.257238,-1.83000419 196.087238,5.4872341 L23.4127617,100.604472 C10.2427617,107.919996 0,126.944472 0,141.577234 L0,328.884471 C0,343.517233 10.2427617,359.614471 23.4127617,366.929995 L197.55,463.509995 C210.72,470.827233 231.207238,470.827233 244.377238,463.509995 L415.587238,365.467233 C428.757238,358.149995 439,342.054471 439,327.419995 L439,141.577234 C439,126.944472 428.757238,110.847234 415.587238,103.529996 L415.587238,103.529996 Z" id="Shape"></path>
                </g>
            </g>
        </g>
    </g>
</svg>