<?xml version="1.0" encoding="iso-8859-1"?>
<!-- Generator: Adobe Illustrator 19.0.0, SVG Export Plug-In . SVG Version: 6.00 Build 0)  -->
<svg version="1.1" id="Layer_1" xmlns="http://www.w3.org/2000/svg" xmlns:xlink="http://www.w3.org/1999/xlink" x="0px" y="0px"
	 viewBox="0 0 512 512" style="enable-background:new 0 0 512 512;" xml:space="preserve">
<circle style="fill:#4CDBC4;" cx="256" cy="256" r="256"/>
<path style="fill:#1EA8A4;" d="M512,256c0-2.124-0.029-4.239-0.081-6.351L408.566,146.296L203.135,296.319l-99.7,76.281
	l139.043,139.043c4.479,0.233,8.985,0.355,13.522,0.355C397.384,512,512,397.384,512,256z"/>
<rect x="103.434" y="194.612" style="fill:#4A6475;" width="305.131" height="177.993"/>
<rect x="255.431" y="194.612" style="fill:#324A5E;" width="153.135" height="177.993"/>
<path style="fill:#FC6F58;" d="M118.691,237.833L118.691,237.833c-8.426,0-15.257-6.83-15.257-15.257v-76.283h30.513v76.283
	C133.947,231.003,127.117,237.833,118.691,237.833z"/>
<path style="fill:#FFD15D;" d="M149.204,237.833L149.204,237.833c-8.426,0-15.257-6.83-15.257-15.257v-76.283h30.513v76.283
	C164.461,231.003,157.63,237.833,149.204,237.833z"/>
<path style="fill:#FC6F58;" d="M179.717,237.833L179.717,237.833c-8.426,0-15.257-6.83-15.257-15.257v-76.283h30.513v76.283
	C194.974,231.003,188.144,237.833,179.717,237.833z"/>
<path style="fill:#FFD15D;" d="M210.23,237.833L210.23,237.833c-8.426,0-15.257-6.83-15.257-15.257v-76.283h30.513v76.283
	C225.487,231.003,218.657,237.833,210.23,237.833z"/>
<path style="fill:#FC6F58;" d="M240.743,237.833L240.743,237.833c-8.426,0-15.257-6.83-15.257-15.257v-76.283H256v76.283
	C256,231.003,249.17,237.833,240.743,237.833z"/>
<path style="fill:#F9B54C;" d="M271.257,237.833L271.257,237.833c-8.426,0-15.257-6.83-15.257-15.257v-76.283h30.513v76.283
	C286.513,231.003,279.683,237.833,271.257,237.833z"/>
<path style="fill:#F1543F;" d="M301.77,237.833L301.77,237.833c-8.426,0-15.257-6.83-15.257-15.257v-76.283h30.513v76.283
	C317.026,231.003,310.196,237.833,301.77,237.833z"/>
<path style="fill:#F9B54C;" d="M332.283,237.833L332.283,237.833c-8.426,0-15.257-6.83-15.257-15.257v-76.283h30.513v76.283
	C347.539,231.003,340.709,237.833,332.283,237.833z"/>
<path style="fill:#F1543F;" d="M362.796,237.833L362.796,237.833c-8.426,0-15.257-6.83-15.257-15.257v-76.283h30.513v76.283
	C378.053,231.003,371.222,237.833,362.796,237.833z"/>
<path style="fill:#F9B54C;" d="M393.309,237.833L393.309,237.833c-8.426,0-15.257-6.83-15.257-15.257v-76.283h30.513v76.283
	C408.566,231.003,401.736,237.833,393.309,237.833z"/>
<rect x="118.225" y="250.552" style="fill:#B5F1F4;" width="183.079" height="91.539"/>
<rect x="255.431" y="250.552" style="fill:#84DBFF;" width="45.882" height="91.539"/>
<rect x="323.508" y="250.552" style="fill:#1F2D3A;" width="61.026" height="122.053"/>
<g>
</g>
<g>
</g>
<g>
</g>
<g>
</g>
<g>
</g>
<g>
</g>
<g>
</g>
<g>
</g>
<g>
</g>
<g>
</g>
<g>
</g>
<g>
</g>
<g>
</g>
<g>
</g>
<g>
</g>
</svg>
